<?xml version="1.0" encoding="UTF-8"?>
<svg id="Layer_2" data-name="Layer 2" xmlns="http://www.w3.org/2000/svg" viewBox="0 0 527.44 173.24">
  <defs>
    <style>
      .cls-1 {
        fill: #007f91;
      }

      .cls-1, .cls-2, .cls-3 {
        stroke-width: 0px;
      }

      .cls-2 {
        fill: #0c1435;
      }

      .cls-3 {
        fill: #2c3646;
      }
    </style>
  </defs>
  <g id="Layer_2-2" data-name="Layer 2">
    <g>
      <path class="cls-2" d="M145.06,107.29l-12.02,12.02c-.56.56-1,1.22-1.3,1.95l-.85,2.04c-.3.73-.46,1.51-.46,2.3v41.61c0,3.32,2.7,6.02,6.02,6.02h0c3.32,0,6.02-2.7,6.02-6.02v-37.82c0-1.6.63-3.13,1.76-4.26l6.66-6.66c1.13-1.13,2.66-1.76,4.26-1.76h15.41c3.32,0,6.02-2.7,6.02-6.02h0c0-3.32-2.7-6.02-6.02-6.02h-19.2c-.79,0-1.57.16-2.3.46l-2.04.85c-.73.3-1.39.75-1.95,1.3Z"/>
      <path class="cls-2" d="M126.33,83.54l-19.89,19.89-1.76,4.26v44.48c0,3.32,2.7,6.02,6.02,6.02h0c3.32,0,6.02-2.7,6.02-6.02v-41.99l17.21-17.21h36.63c3.32,0,6.02-2.7,6.02-6.02h0c0-3.32-2.7-6.02-6.02-6.02h-37.93c-.79,0-1.57.16-2.3.46l-2.04.85c-.73.3-1.39.75-1.95,1.3Z"/>
      <path class="cls-2" d="M74.05,104.31l-2.04-.85c-.73-.3-1.51-.46-2.3-.46H29.76c-3.32,0-6.02,2.7-6.02,6.02h0c0,3.32,2.7,6.02,6.02,6.02h36.15c1.6,0,3.13.63,4.26,1.76l5.32,5.32c1.13,1.13,1.76,2.66,1.76,4.26v40.83c0,3.32,2.7,6.02,6.02,6.02h0c3.32,0,6.02-2.7,6.02-6.02v-44.62c0-.79-.16-1.57-.46-2.3l-.85-2.04c-.3-.73-.75-1.39-1.3-1.95l-10.68-10.68c-.56-.56-1.22-1-1.95-1.3Z"/>
      <path class="cls-2" d="M0,129.76h0c0,3.32,2.7,6.02,6.02,6.02h39.13c3.32,0,6.02,2.7,6.02,6.02v14.38c0,3.32,2.7,6.02,6.02,6.02h0c3.32,0,6.02-2.7,6.02-6.02v-23.93c0-1.6-.63-3.13-1.76-4.26l-2.49-2.49c-1.13-1.13-2.66-1.76-4.26-1.76H6.02c-3.32,0-6.02,2.7-6.02,6.02Z"/>
      <path class="cls-2" d="M60.87,23.93V6.02c0-3.32-2.7-6.02-6.02-6.02h0c-3.32,0-6.02,2.7-6.02,6.02v8.36c0,3.32-2.7,6.02-6.02,6.02h-13.04c-3.32,0-6.02,2.7-6.02,6.02h0c0,3.32,2.7,6.02,6.02,6.02h22.59c1.6,0,3.13-.63,4.26-1.76l2.49-2.49c1.13-1.13,1.76-2.66,1.76-4.26Z"/>
      <path class="cls-1" d="M74.67,55.25l10.35-10.35c.56-.56,1-1.22,1.3-1.95l.85-2.04c.3-.73.46-1.51.46-2.3V6.02c0-3.32-2.7-6.02-6.02-6.02h0c-3.32,0-6.02,2.7-6.02,6.02v28.79c0,1.6-.63,3.13-1.76,4.26l-4.99,4.99c-1.13,1.13-2.66,1.76-4.26,1.76H29.76c-3.32,0-6.02,2.7-6.02,6.02h0c0,3.32,2.7,6.02,6.02,6.02h38.6c.79,0,1.57-.16,2.3-.46l2.04-.85c.73-.3,1.39-.75,1.95-1.3Z"/>
      <path class="cls-1" d="M116.72,41.99V6.02c0-3.32-2.7-6.02-6.02-6.02h0c-3.32,0-6.02,2.7-6.02,6.02v37.26c0,.79.16,1.57.46,2.3l.85,2.04c.3.73.75,1.39,1.3,1.95l13.36,13.36c.56.56,1.22,1,1.95,1.3l2.04.85c.73.3,1.51.46,2.3.46h43.62c3.32,0,6.02-2.7,6.02-6.02h0c0-3.32-2.7-6.02-6.02-6.02h-39.83c-1.6,0-3.13-.63-4.26-1.76l-9.76-9.76Z"/>
      <path class="cls-1" d="M203,42.72v6.61c0,1.66-.68,3.17-1.76,4.26-1.09,1.09-2.6,1.76-4.26,1.76-3.32,0-6.02-2.7-6.02-6.02v-4.85h-37.46v-12.04h39.22c1.36,0,2.7.27,3.93.78,1.23.51,2.37,1.26,3.33,2.23,1.93,1.93,3.01,4.54,3.01,7.27Z"/>
      <path class="cls-2" d="M153.5,32.44v12.04h-12.8c-1.36,0-2.7-.27-3.93-.78-1.23-.51-2.37-1.26-3.33-2.23-1.93-1.93-3.01-4.54-3.01-7.27V14.71c0-1.66.68-3.17,1.76-4.26,1.09-1.09,2.6-1.76,4.26-1.76,3.32,0,6.02,2.7,6.02,6.02v17.72h11.04Z"/>
      <path class="cls-1" d="M95.53,67.92c-4.63-.34-8.74,2.01-10.93,5.65H29.76c-3.32,0-6.02,2.7-6.02,6.02h0c0,3.32,2.7,6.02,6.02,6.02h54.84c2.05,3.41,5.78,5.69,10.04,5.69,6.74,0,12.15-5.7,11.68-12.54-.4-5.75-5.04-10.42-10.79-10.84Z"/>
    </g>
    <g>
      <path class="cls-3" d="M240.22,115.08l25.12-67.2h12.93l24.93,67.2h-12.56l-5.62-16.07h-26.85l-5.48,16.07h-12.47ZM261.12,89.68h20.81l-9.18-26.52c-.22-.69-.42-1.38-.59-2.09-.17-.7-.34-1.57-.49-2.6h-.28c-.16.91-.32,1.73-.49,2.46-.17.73-.37,1.45-.59,2.13l-9.19,26.62Z"/>
      <path class="cls-3" d="M317.73,57.25c-2.03,0-3.71-.64-5.04-1.92-1.33-1.28-1.99-2.86-1.99-4.73,0-1.97.66-3.58,1.99-4.83,1.33-1.25,3.01-1.87,5.04-1.87s3.72.62,5.06,1.87c1.34,1.25,2.01,2.86,2.01,4.83s-.67,3.49-2.01,4.76c-1.34,1.27-3.03,1.9-5.06,1.9ZM323.21,115.08h-11.15v-49.16h11.15v49.16Z"/>
      <path class="cls-3" d="M383.34,57.53h-19.31v57.55h-11.39v-57.55h-19.26v-9.65h49.96v9.65Z"/>
      <path class="cls-3" d="M425.23,93.38h-33.55c.22,4.66,1.57,8.2,4.05,10.64,2.48,2.44,5.99,3.66,10.52,3.66,1.78,0,3.85-.37,6.21-1.1,2.36-.73,4.71-1.93,7.05-3.58l4.97,6.98c-3.09,2.19-6.22,3.78-9.37,4.78s-6.62,1.5-10.4,1.5c-7.62,0-13.56-2.2-17.81-6.61-4.25-4.41-6.39-10.57-6.42-18.51,0-7.87,2.2-14.24,6.61-19.1,4.41-4.86,10.04-7.29,16.92-7.29s11.82,2.07,15.58,6.21c3.76,4.14,5.65,10.01,5.65,17.6v4.83ZM414.55,85.7c-.03-4.22-.97-7.4-2.81-9.56s-4.45-3.23-7.83-3.23c-3.19,0-5.89,1.16-8.11,3.47-2.22,2.31-3.58,5.42-4.08,9.33h22.82Z"/>
      <path class="cls-3" d="M473.55,111.89c-2.44,1.53-4.88,2.64-7.33,3.33-2.45.69-5.1,1.03-7.94,1.03-7.56,0-13.6-2.22-18.11-6.65-4.51-4.44-6.77-10.42-6.77-17.95,0-8.22,2.36-14.75,7.08-19.61,4.72-4.86,11.06-7.29,19.03-7.29,2.75,0,5.26.3,7.54.89,2.28.59,4.58,1.55,6.89,2.86l-4.41,7.78c-1.62-.94-3.23-1.62-4.8-2.04-1.58-.42-3.27-.63-5.08-.63-4.75,0-8.41,1.55-10.99,4.66-2.58,3.11-3.87,7.26-3.87,12.44s1.37,9.46,4.1,12.35c2.73,2.89,6.21,4.33,10.43,4.33,1.37,0,2.9-.23,4.57-.7,1.67-.47,3.37-1.27,5.08-2.39l4.59,7.59Z"/>
      <path class="cls-3" d="M527.44,115.08h-11.11v-28.16c0-4.47-.81-7.8-2.44-10-1.62-2.2-4.09-3.3-7.4-3.3s-6.07,1.26-8.27,3.77c-2.2,2.52-3.3,5.77-3.3,9.77v27.93h-11.15V44.04h11.15v29.66h.19c1.87-3.03,4.12-5.28,6.72-6.75,2.61-1.47,5.6-2.2,8.97-2.2,5.56,0,9.72,1.68,12.49,5.04s4.15,8.38,4.15,15.07v30.23Z"/>
    </g>
  </g>
</svg>