<?xml version="1.0" encoding="UTF-8"?>
<svg id="Layer_2" data-name="Layer 2" xmlns="http://www.w3.org/2000/svg" viewBox="0 0 535 173.24">
  <defs>
    <style>
      .cls-1 {
        fill: #40a298;
      }

      .cls-1, .cls-2 {
        stroke-width: 0px;
      }

      .cls-3 {
        font-family: SegoeUIVariable-SemiboldSmall, 'Segoe UI Variable';
        font-size: 95.97px;
        font-variation-settings: 'wght' 600, 'opsz' 8;
        font-weight: 600;
      }

      .cls-3, .cls-2 {
        fill: #fff;
      }

      .cls-4 {
        letter-spacing: -.1em;
      }
    </style>
  </defs>
  <g id="Layer_2-2" data-name="Layer 2">
    <g>
      <path class="cls-2" d="M145.06,107.29l-12.02,12.02c-.56.56-1,1.22-1.3,1.95l-.85,2.04c-.3.73-.46,1.51-.46,2.3v41.61c0,3.32,2.7,6.02,6.02,6.02h0c3.32,0,6.02-2.7,6.02-6.02v-37.82c0-1.6.63-3.13,1.76-4.26l6.66-6.66c1.13-1.13,2.66-1.76,4.26-1.76h15.41c3.32,0,6.02-2.7,6.02-6.02h0c0-3.32-2.7-6.02-6.02-6.02h-19.2c-.79,0-1.57.16-2.3.46l-2.04.85c-.73.3-1.39.75-1.95,1.3Z"/>
      <path class="cls-2" d="M126.33,83.54l-19.89,19.89-1.76,4.26v44.48c0,3.32,2.7,6.02,6.02,6.02h0c3.32,0,6.02-2.7,6.02-6.02v-41.99l17.21-17.21h36.63c3.32,0,6.02-2.7,6.02-6.02h0c0-3.32-2.7-6.02-6.02-6.02h-37.93c-.79,0-1.57.16-2.3.46l-2.04.85c-.73.3-1.39.75-1.95,1.3Z"/>
      <path class="cls-2" d="M74.05,104.31l-2.04-.85c-.73-.3-1.51-.46-2.3-.46H29.76c-3.32,0-6.02,2.7-6.02,6.02h0c0,3.32,2.7,6.02,6.02,6.02h36.15c1.6,0,3.13.63,4.26,1.76l5.32,5.32c1.13,1.13,1.76,2.66,1.76,4.26v40.83c0,3.32,2.7,6.02,6.02,6.02h0c3.32,0,6.02-2.7,6.02-6.02v-44.62c0-.79-.16-1.57-.46-2.3l-.85-2.04c-.3-.73-.75-1.39-1.3-1.95l-10.68-10.68c-.56-.56-1.22-1-1.95-1.3Z"/>
      <path class="cls-2" d="M0,129.76h0c0,3.32,2.7,6.02,6.02,6.02h39.13c3.32,0,6.02,2.7,6.02,6.02v14.38c0,3.32,2.7,6.02,6.02,6.02h0c3.32,0,6.02-2.7,6.02-6.02v-23.93c0-1.6-.63-3.13-1.76-4.26l-2.49-2.49c-1.13-1.13-2.66-1.76-4.26-1.76H6.02c-3.32,0-6.02,2.7-6.02,6.02Z"/>
      <path class="cls-2" d="M60.87,23.93V6.02c0-3.32-2.7-6.02-6.02-6.02h0c-3.32,0-6.02,2.7-6.02,6.02v8.36c0,3.32-2.7,6.02-6.02,6.02h-13.04c-3.32,0-6.02,2.7-6.02,6.02h0c0,3.32,2.7,6.02,6.02,6.02h22.59c1.6,0,3.13-.63,4.26-1.76l2.49-2.49c1.13-1.13,1.76-2.66,1.76-4.26Z"/>
      <path class="cls-1" d="M74.67,55.25l10.35-10.35c.56-.56,1-1.22,1.3-1.95l.85-2.04c.3-.73.46-1.51.46-2.3V6.02c0-3.32-2.7-6.02-6.02-6.02h0c-3.32,0-6.02,2.7-6.02,6.02v28.79c0,1.6-.63,3.13-1.76,4.26l-4.99,4.99c-1.13,1.13-2.66,1.76-4.26,1.76H29.76c-3.32,0-6.02,2.7-6.02,6.02h0c0,3.32,2.7,6.02,6.02,6.02h38.6c.79,0,1.57-.16,2.3-.46l2.04-.85c.73-.3,1.39-.75,1.95-1.3Z"/>
      <path class="cls-1" d="M116.72,41.99V6.02c0-3.32-2.7-6.02-6.02-6.02h0c-3.32,0-6.02,2.7-6.02,6.02v37.26c0,.79.16,1.57.46,2.3l.85,2.04c.3.73.75,1.39,1.3,1.95l13.36,13.36c.56.56,1.22,1,1.95,1.3l2.04.85c.73.3,1.51.46,2.3.46h43.62c3.32,0,6.02-2.7,6.02-6.02h0c0-3.32-2.7-6.02-6.02-6.02h-39.83c-1.6,0-3.13-.63-4.26-1.76l-9.76-9.76Z"/>
      <path class="cls-1" d="M203,42.72v6.61c0,1.66-.68,3.17-1.76,4.26-1.09,1.09-2.6,1.76-4.26,1.76-3.32,0-6.02-2.7-6.02-6.02v-4.85h-37.46v-12.04h39.22c1.36,0,2.7.27,3.93.78,1.23.51,2.37,1.26,3.33,2.23,1.93,1.93,3.01,4.54,3.01,7.27Z"/>
      <path class="cls-2" d="M153.5,32.44v12.04h-12.8c-1.36,0-2.7-.27-3.93-.78-1.23-.51-2.37-1.26-3.33-2.23-1.93-1.93-3.01-4.54-3.01-7.27V14.71c0-1.66.68-3.17,1.76-4.26,1.09-1.09,2.6-1.76,4.26-1.76,3.32,0,6.02,2.7,6.02,6.02v17.72h11.04Z"/>
      <path class="cls-1" d="M95.53,67.92c-4.63-.34-8.74,2.01-10.93,5.65H29.76c-3.32,0-6.02,2.7-6.02,6.02h0c0,3.32,2.7,6.02,6.02,6.02h54.84c2.05,3.41,5.78,5.69,10.04,5.69,6.74,0,12.15-5.7,11.68-12.54-.4-5.75-5.04-10.42-10.79-10.84Z"/>
    </g>
    <text class="cls-3" transform="translate(240 130.08)"><tspan x="0" y="0">Ai</tspan><tspan class="cls-4" x="92.32" y="0">T</tspan><tspan x="137.07" y="0">ech</tspan></text>
  </g>
</svg>